<?xml version="1.0" encoding="UTF-8" standalone="no"?>
<!-- Generator: Adobe Illustrator 13.0.0, SVG Export Plug-In . SVG Version: 6.00 Build 14948)  -->

<svg
   xmlns:dc="http://purl.org/dc/elements/1.1/"
   xmlns:cc="http://creativecommons.org/ns#"
   xmlns:rdf="http://www.w3.org/1999/02/22-rdf-syntax-ns#"
   xmlns:svg="http://www.w3.org/2000/svg"
   xmlns="http://www.w3.org/2000/svg"
   xmlns:xlink="http://www.w3.org/1999/xlink"
   xmlns:sodipodi="http://sodipodi.sourceforge.net/DTD/sodipodi-0.dtd"
   xmlns:inkscape="http://www.inkscape.org/namespaces/inkscape"
   version="1.1"
   id="Layer_1"
   x="0px"
   y="0px"
   width="512"
   height="512"
   viewBox="0 0 512 512"
   enable-background="new 0 0 440 370"
   xml:space="preserve"
   inkscape:version="0.48.4 r9939"
   sodipodi:docname="u3Toolbox.svg"
   inkscape:export-filename="C:\SandboxPool\u3Toolbox\images\toolHat-16px.png"
   inkscape:export-xdpi="2.8125"
   inkscape:export-ydpi="2.8125"><title
   id="title3099">u3Toolbox icon</title><metadata
   id="metadata3221"><rdf:RDF><cc:Work
       rdf:about=""><dc:format>image/svg+xml</dc:format><dc:type
         rdf:resource="http://purl.org/dc/dcmitype/StillImage" /><dc:title>u3Toolbox icon</dc:title><dc:creator><cc:Agent><dc:title>utak3r</dc:title></cc:Agent></dc:creator><dc:publisher><cc:Agent><dc:title>utak3r</dc:title></cc:Agent></dc:publisher></cc:Work></rdf:RDF></metadata><defs
   id="defs3219">
		
		
		
	
			
			
			
			
		<radialGradient
   inkscape:collect="always"
   xlink:href="#SVGID_1_"
   id="radialGradient3302"
   cx="134.81085"
   cy="95.905441"
   fx="134.81085"
   fy="95.905441"
   r="146.80554"
   gradientTransform="matrix(1.4541526,1.8771003,-1.4010597,1.0557037,73.144556,-234.28834)"
   gradientUnits="userSpaceOnUse" /><radialGradient
   inkscape:collect="always"
   xlink:href="#SVGID_1_"
   id="radialGradient3304"
   gradientUnits="userSpaceOnUse"
   gradientTransform="matrix(1.4541526,1.8771003,-1.4010597,1.0557037,73.144556,-234.28834)"
   cx="134.81085"
   cy="95.905441"
   fx="134.81085"
   fy="95.905441"
   r="146.80554" /><radialGradient
   inkscape:collect="always"
   xlink:href="#SVGID_1_"
   id="radialGradient3306"
   gradientUnits="userSpaceOnUse"
   gradientTransform="matrix(1.4541526,1.8771003,-1.4010597,1.0557037,73.144556,-234.28834)"
   cx="134.81085"
   cy="95.905441"
   fx="134.81085"
   fy="95.905441"
   r="146.80554" /></defs><sodipodi:namedview
   pagecolor="#ffffff"
   bordercolor="#666666"
   borderopacity="1"
   objecttolerance="10"
   gridtolerance="10"
   guidetolerance="10"
   inkscape:pageopacity="0"
   inkscape:pageshadow="2"
   inkscape:window-width="1920"
   inkscape:window-height="1020"
   id="namedview3217"
   showgrid="false"
   inkscape:zoom="1.6269531"
   inkscape:cx="161.03721"
   inkscape:cy="256"
   inkscape:window-x="1912"
   inkscape:window-y="-8"
   inkscape:window-maximized="1"
   inkscape:current-layer="g3105" />
<g
   id="g3105"
   transform="translate(0,142)">
	<g
   id="g3109"
   transform="matrix(1.2808815,0,0,1.3160998,-0.16400981,-168.71669)">
			<path
   style="fill:#ffffff;stroke:#cccccc;stroke-width:15.47719955"
   inkscape:connector-curvature="0"
   id="path3111"
   d="m 266.018,314.156 c 0,0 -30.965,16.684 -78.454,33.213 -28.683,10 -79.628,-6.867 -106.152,-13.891 -26.563,-7.049 -72.459,-21.629 -59.724,-34.364 12.736,-12.732 49.354,-39.888 49.354,-39.888 0,0 -34.865,57.573 194.976,54.93 z" />
			<g
   id="g3113">
				<path
   style="fill:#ffffff;stroke:#cccccc;stroke-width:15.47719955"
   inkscape:connector-curvature="0"
   id="path3115"
   d="m 54.069,272.286 c 0,24.282 72.646,43.974 162.273,43.974 89.617,0 162.249,-19.689 162.249,-43.974 C 359.9,258.738 362.605,247.332 362.605,247.332 H 69.299 c 0.01,0 2.605,11.406 -15.23,24.954 z" />
			</g>
			<g
   id="g3117">
				<g
   id="g3119">
					<path
   style="fill:#ffffff"
   inkscape:connector-curvature="0"
   id="path3121"
   d="m 344.759,160.41 c -3.628,-8.278 -17.685,-36.869 -46.261,-56.996 -51.803,-36.532 -116.039,-29.563 -153.81,-7.634 -25.523,14.848 -43.106,33.982 -57.037,62.074 -3.4,6.862 -9.738,21.504 -14.082,42.451 -3.759,18.168 -4.121,29.625 -4.726,48.653 0.03,15.899 30.204,30.239 82.196,37.222 72.762,9.744 160.702,1.28 196.393,-18.902 10.213,-5.772 15.034,-11.914 15.014,-17.896 -0.753,-24.585 -1.662,-52.437 -17.687,-88.972 z" />
				</g>
				<g
   id="g3123">
					<path
   style="fill:none;stroke:#cccccc;stroke-width:15.47719955"
   inkscape:connector-curvature="0"
   id="path3125"
   d="m 344.759,160.41 c -3.628,-8.278 -17.685,-36.869 -46.261,-56.996 -51.803,-36.532 -116.039,-29.563 -153.81,-7.634 -25.523,14.848 -43.106,33.982 -57.037,62.074 -3.4,6.862 -9.738,21.504 -14.082,42.451 -3.759,18.168 -4.121,29.625 -4.726,48.653 0.03,15.899 30.204,30.239 82.196,37.222 72.762,9.744 160.702,1.28 196.393,-18.902 10.213,-5.772 15.034,-11.914 15.014,-17.896 -0.753,-24.585 -1.662,-52.437 -17.687,-88.972 z" />
				</g>
			</g>
		</g><path
   d="m 342.13491,243.78583 c 0,0 -39.67402,21.92097 -100.48899,43.709 C 204.9192,300.6295 139.67239,278.45717 105.69444,269.17999 71.671664,259.93701 12.876644,240.74697 29.18995,223.95221 45.501975,207.19826 92.380955,171.478 92.380955,171.478 c 0,0 -44.637437,75.77576 249.753955,72.30783 z"
   id="path3129"
   inkscape:connector-curvature="0"
   style="fill:#d40000;stroke:#000000;stroke-width:6.69842672" /><g
   id="g3131"
   transform="matrix(1.2808815,0,0,1.3160998,-0.16400981,-168.71669)">
				<path
   d="m 55.292,271.555 c 0,24.284 72.624,43.959 162.259,43.959 89.613,0 162.264,-19.67 162.264,-43.959 -18.702,-13.548 -15.979,-24.953 -15.979,-24.953 H 70.512 c 0.011,0 2.601,11.406 -15.22,24.953 z"
   id="path3133"
   inkscape:connector-curvature="0"
   style="stroke:#000000;stroke-width:5.15910006" />
			</g><g
   id="g3135"
   transform="matrix(1.2808815,0,0,1.3160998,-0.16400981,-168.71669)">
				<g
   id="g3137">
					<path
   d="m 345.992,159.669 c -3.628,-8.272 -17.692,-36.851 -46.26,-56.997 -51.798,-36.531 -116.034,-29.554 -153.81,-7.628 -25.539,14.849 -43.112,33.981 -57.032,62.05 -3.406,6.862 -9.759,21.504 -14.082,42.462 -3.748,18.156 -4.115,29.623 -4.729,48.627 0.021,15.9 30.219,30.264 82.218,37.223 72.76,9.769 160.69,1.279 196.371,-18.903 10.213,-5.772 15.044,-11.892 15.022,-17.896 -0.78,-24.546 -1.692,-52.402 -17.698,-88.938 z"
   id="path3139"
   inkscape:connector-curvature="0"
   style="fill:#ffd520" />
				</g>
				<g
   id="g3141">
					<path
   d="m 345.992,159.669 c -3.628,-8.272 -17.692,-36.851 -46.26,-56.997 -51.798,-36.531 -116.034,-29.554 -153.81,-7.628 -25.539,14.849 -43.112,33.981 -57.032,62.05 -3.406,6.862 -9.759,21.504 -14.082,42.462 -3.748,18.156 -4.115,29.623 -4.729,48.627 0.021,15.9 30.219,30.264 82.218,37.223 72.76,9.769 160.69,1.279 196.371,-18.903 10.213,-5.772 15.044,-11.892 15.022,-17.896 -0.78,-24.546 -1.692,-52.402 -17.698,-88.938 z"
   id="path3143"
   inkscape:connector-curvature="0"
   style="fill:none;stroke:#000000;stroke-width:5.15910006" />
				</g>
			</g><g
   id="g3145"
   transform="matrix(1.2808815,0,0,1.3160998,-0.16400981,-168.71669)"
   style="fill:url(#radialGradient3302);fill-opacity:1">
				<g
   id="g3147"
   style="fill:url(#radialGradient3306);fill-opacity:1">
					
						<radialGradient
   id="SVGID_1_"
   cx="-464.9202"
   cy="873.18951"
   r="255.5941"
   gradientTransform="translate(614.4004,-728.4014)"
   gradientUnits="userSpaceOnUse"
   style="fill:url(#radialGradient3302);fill-opacity:1">
						<stop
   offset="0.5"
   style="stop-color:#fe370e;stop-opacity:1;fill-opacity:1;fill:url(#radialGradient3302)"
   id="stop3150" />
						<stop
   offset="1"
   style="stop-color:#000000;fill-opacity:1;fill:url(#radialGradient3302)"
   id="stop3152" />
					</radialGradient>
					<path
   d="m 345.992,159.669 c -3.628,-8.272 -17.692,-36.851 -46.26,-56.997 -51.798,-36.531 -116.034,-29.554 -153.81,-7.628 -25.539,14.849 -43.112,33.981 -57.032,62.05 -3.406,6.862 -9.759,21.504 -14.082,42.462 -3.748,18.156 -4.115,29.623 -4.729,48.627 0.021,15.9 30.219,30.264 82.218,37.223 72.76,9.769 160.69,1.279 196.371,-18.903 10.213,-5.772 15.044,-11.892 15.022,-17.896 -0.78,-24.546 -1.692,-52.402 -17.698,-88.938 z"
   id="path3154"
   style="fill:url(#radialGradient3304);fill-opacity:1"
   inkscape:connector-curvature="0" />
				</g>
			</g><g
   id="g3156"
   transform="matrix(1.2808815,0,0,1.3160998,-0.16400981,-168.71669)">
			<g
   id="g3158">
				<g
   id="g3160">
					<path
   style="fill:#cccccc"
   inkscape:connector-curvature="0"
   id="path3162"
   d="M 292.967,97.194 C 183.995,27.707 73.4,170.418 76.861,262.057 l -10.137,4.09 C 66.729,166.256 174.974,19.021 292.967,97.194" />
				</g>
				<polygon
   style="fill:#cccccc"
   id="polygon3164"
   points="76.865,262.057 61.197,281.15 66.729,266.146 " />
			</g>
			<path
   style="stroke:#000000;stroke-width:5.15910006;stroke-linecap:round;stroke-linejoin:round"
   inkscape:connector-curvature="0"
   id="path3166"
   d="m 109.11,280.45 0,0 C 109.105,190.041 163.059,49.176 260.763,81.157 155.99,45.698 66.749,175.416 66.749,266.127 l -5.532,15.003 42.381,14.294 5.512,-14.974 0,0 z" />
			<g
   id="g3168">
				<g
   id="g3170">
					<path
   style="fill:#cccccc"
   inkscape:connector-curvature="0"
   id="path3172"
   d="m 109.105,280.45 0,0 0,0 -5.526,15.004 24.849,-17.417 C 124.95,186.375 183.992,27.712 292.974,97.173 174.974,19.021 109.105,180.544 109.105,280.45 z" />
				</g>
				<g
   id="g3174">
					<path
   style="fill:none;stroke:#000000;stroke-width:5.15910006;stroke-linecap:round;stroke-linejoin:round"
   inkscape:connector-curvature="0"
   id="path3176"
   d="m 109.105,280.45 0,0 0,0 -5.526,15.004 24.849,-17.417 C 124.95,186.375 183.992,27.712 292.974,97.173 174.974,19.021 109.105,180.544 109.105,280.45 z" />
				</g>
			</g>
		</g>
	
	<g
   id="g3188"
   transform="matrix(1.139054,0,0,1.1542508,6.7344515,-20.156631)">
		<g
   id="g3190">
			<g
   id="g3192">
				<path
   d="M 419.5,76.856 V 46.465 c 0,-12.786 -12.827,-23.619 -24.92,-27.841 v 30.33 c 0,15.301 -11.558,27.71 -25.806,27.71 -14.257,0 -25.795,-12.409 -25.795,-27.71 V 18.541 C 330.766,22.687 317.798,33.6 317.798,46.457 v 30.39 c 0,12.934 11.936,23.907 25.04,27.987 v 118.612 c -14.692,8.832 -24.558,24.885 -24.558,43.271 0,27.896 22.611,50.527 50.514,50.527 27.899,0 50.521,-22.631 50.521,-50.527 0,-18.535 -10.02,-34.691 -24.907,-43.482 V 104.833 C 407.53,100.768 419.5,89.794 419.5,76.856 z m -26.612,203.778 -24.072,13.896 -24.062,-13.896 v -27.795 l 24.062,-13.896 24.072,13.896 v 27.795 z"
   id="path3194"
   inkscape:connector-curvature="0"
   style="fill:none;stroke:#cccccc;stroke-width:15.47719955;stroke-linecap:round;stroke-linejoin:round" />
			</g>
		</g>
		<g
   id="g3196">
			<g
   id="g3198">
				<path
   d="M 419.5,76.856 V 46.465 c 0,-12.786 -12.827,-23.619 -24.92,-27.841 v 30.33 c 0,15.301 -11.558,27.71 -25.806,27.71 -14.257,0 -25.795,-12.409 -25.795,-27.71 V 18.541 C 330.766,22.687 317.798,33.6 317.798,46.457 v 30.39 c 0,12.934 11.936,23.907 25.04,27.987 v 118.612 c -14.692,8.832 -24.558,24.885 -24.558,43.271 0,27.896 22.611,50.527 50.514,50.527 27.899,0 50.521,-22.631 50.521,-50.527 0,-18.535 -10.02,-34.691 -24.907,-43.482 V 104.833 C 407.53,100.768 419.5,89.794 419.5,76.856 z m -26.612,203.778 -24.072,13.896 -24.062,-13.896 v -27.795 l 24.062,-13.896 24.072,13.896 v 27.795 z"
   id="path3200"
   inkscape:connector-curvature="0"
   style="fill:#ffffff" />
			</g>
			<g
   id="g3202">
				<path
   d="M 419.5,76.856 V 46.465 c 0,-12.786 -12.827,-23.619 -24.92,-27.841 v 30.33 c 0,15.301 -11.558,27.71 -25.806,27.71 -14.257,0 -25.795,-12.409 -25.795,-27.71 V 18.541 C 330.766,22.687 317.798,33.6 317.798,46.457 v 30.39 c 0,12.934 11.936,23.907 25.04,27.987 v 118.612 c -14.692,8.832 -24.558,24.885 -24.558,43.271 0,27.896 22.611,50.527 50.514,50.527 27.899,0 50.521,-22.631 50.521,-50.527 0,-18.535 -10.02,-34.691 -24.907,-43.482 V 104.833 C 407.53,100.768 419.5,89.794 419.5,76.856 z m -26.612,203.778 -24.072,13.896 -24.062,-13.896 v -27.795 l 24.062,-13.896 24.072,13.896 v 27.795 z"
   id="path3204"
   inkscape:connector-curvature="0"
   style="fill:none;stroke:#000000;stroke-width:5.15910006" />
			</g>
		</g>
		<g
   id="g3206"
   style="opacity:0.15">
			<g
   id="g3208">
				
					<linearGradient
   id="SVGID_2_"
   gradientUnits="userSpaceOnUse"
   x1="-229.82201"
   y1="896.29388"
   x2="-290.0098"
   y2="896.29388"
   gradientTransform="translate(614.4004,-728.4014)">
					<stop
   offset="0.3187"
   style="stop-color:#FFFFFF"
   id="stop3211" />
					<stop
   offset="1"
   style="stop-color:#000000"
   id="stop3213" />
				</linearGradient>
				<path
   d="M 419.5,76.856 V 46.465 c 0,-12.786 -12.827,-23.619 -24.92,-27.841 v 30.33 c 0,15.301 -11.558,27.71 -25.806,27.71 -14.257,0 -25.795,-12.409 -25.795,-27.71 V 18.541 C 330.766,22.687 317.798,33.6 317.798,46.457 v 30.39 c 0,12.934 11.936,23.907 25.04,27.987 v 118.612 c -14.692,8.832 -24.558,24.885 -24.558,43.271 0,27.896 22.611,50.527 50.514,50.527 27.899,0 50.521,-22.631 50.521,-50.527 0,-18.535 -10.02,-34.691 -24.907,-43.482 V 104.833 C 407.53,100.768 419.5,89.794 419.5,76.856 z m -26.612,203.778 -24.072,13.896 -24.062,-13.896 v -27.795 l 24.062,-13.896 24.072,13.896 v 27.795 z"
   id="path3215"
   style="fill:url(#SVGID_2_)"
   inkscape:connector-curvature="0" />
			</g>
		</g>
	</g>
</g>
</svg>